<svg xmlns="http://www.w3.org/2000/svg" viewBox="0 0 512 512">
  <rect width="512" height="512" fill="#2563eb" rx="64"/>
  <g fill="#ffffff">
    <!-- Book shape -->
    <path d="M128 96h256c17.7 0 32 14.3 32 32v256c0 17.7-14.3 32-32 32H128c-17.7 0-32-14.3-32-32V128c0-17.7 14.3-32 32-32z" fill="none" stroke="#ffffff" stroke-width="16"/>
    <!-- Book spine -->
    <line x1="256" y1="96" x2="256" y2="416" stroke="#ffffff" stroke-width="8"/>
    <!-- Cross on left page -->
    <line x1="160" y1="180" x2="160" y2="280" stroke="#ffffff" stroke-width="12"/>
    <line x1="120" y1="210" x2="200" y2="210" stroke="#ffffff" stroke-width="12"/>
    <!-- Text lines on right page -->
    <line x1="290" y1="160" x2="360" y2="160" stroke="#ffffff" stroke-width="8" stroke-linecap="round"/>
    <line x1="290" y1="200" x2="350" y2="200" stroke="#ffffff" stroke-width="8" stroke-linecap="round"/>
    <line x1="290" y1="240" x2="370" y2="240" stroke="#ffffff" stroke-width="8" stroke-linecap="round"/>
    <line x1="290" y1="280" x2="340" y2="280" stroke="#ffffff" stroke-width="8" stroke-linecap="round"/>
    <line x1="290" y1="320" x2="360" y2="320" stroke="#ffffff" stroke-width="8" stroke-linecap="round"/>
  </g>
</svg>
